<svg xmlns="http://www.w3.org/2000/svg" width="18" height="10" fill="none" viewBox="0 0 540 300"><style>.blue-shape{fill:#a8c7fa}.darker-blue-shape{fill:#1b6ef3}@media (prefers-color-scheme:dark){.blue-shape{fill:#2d509e}.darker-blue-shape{fill:#4185ff}}</style><path d="M150 0L180 30L150 60L120 30L150 0Z" class="blue-shape"/><path d="M210 60L240 90L210 120L180 90L210 60Z" class="blue-shape"/><path d="M450 60L480 90L450 120L420 90L450 60Z" class="blue-shape"/><path d="M510 120L540 150L510 180L480 150L510 120Z" class="blue-shape"/><path d="M450 180L480 210L450 240L420 210L450 180Z" class="blue-shape"/><path d="M390 240L420 270L390 300L360 270L390 240Z" class="blue-shape"/><path d="M330 180L360 210L330 240L300 210L330 180Z" class="blue-shape"/><path d="M90 60L120 90L90 120L60 90L90 60Z" class="blue-shape"/><path d="M390 0L420 30L150 300L0 150L30 120L150 240L390 0Z" class="darker-blue-shape"/></svg>