<svg xmlns="http://www.w3.org/2000/svg" width="186" height="50" fill="none" viewBox="0 0 186 50"><rect width="81" height="16" x=".5" fill="#FACC15"/><rect width="42" height="16" x="82.5" fill="#FACC15"/><rect width="10" height="16" x="42.5" y="17" fill="#D190FF"/><rect width="84" height="16" x="53.5" y="17" fill="#D190FF"/><rect width="39" height="16" x="138.5" y="17" fill="#D190FF"/><rect width="74" height="16" x="56.5" y="34" fill="#37BE5F"/><rect width="54" height="16" x="131.5" y="34" fill="#37BE5F"/><rect width="79" height="14" x="1.5" y="1" stroke="#1F1F1F" stroke-width="2"/><rect width="52" height="14" x="132.5" y="35" stroke="#1F1F1F" stroke-width="2"/><g filter="url(#filter0_dd_4690_314721)"><path stroke="#1F1F1F" stroke-linecap="round" stroke-width="2" d="M78.7261 6.95605L128.208 39.0898"/><circle cx="80.403" cy="8.045" r="2" fill="#fff" stroke="#1F1F1F" stroke-width="2" transform="rotate(33 80.4031 8.04544)"/><circle cx="132.401" cy="41.813" r="2" fill="#fff" stroke="#1F1F1F" stroke-width="2" transform="rotate(33 132.401 41.813)"/><path fill="#1F1F1F" d="M129.239 40.749C129.949 40.7371 130.42 40.0107 130.143 39.3578L127.213 32.4675C126.899 31.7305 125.89 31.6425 125.454 32.3142L120.897 39.3304C120.461 40.002 120.952 40.8883 121.753 40.8749L129.239 40.749Z"/></g><defs><filter id="filter0_dd_4690_314721" width="69.326" height="54.274" x="70.075" y="-2.459" color-interpolation-filters="sRGB" filterUnits="userSpaceOnUse"><feFlood flood-opacity="0" result="BackgroundImageFix"/><feColorMatrix in="SourceAlpha" result="hardAlpha" type="matrix" values="0 0 0 0 0 0 0 0 0 0 0 0 0 0 0 0 0 0 127 0"/><feMorphology in="SourceAlpha" operator="dilate" radius="1" result="effect1_dropShadow_4690_314721"/><feOffset dy="1"/><feGaussianBlur stdDeviation="1.5"/><feColorMatrix type="matrix" values="0 0 0 0 0 0 0 0 0 0 0 0 0 0 0 0 0 0 0.15 0"/><feBlend in2="BackgroundImageFix" mode="normal" result="effect1_dropShadow_4690_314721"/><feColorMatrix in="SourceAlpha" result="hardAlpha" type="matrix" values="0 0 0 0 0 0 0 0 0 0 0 0 0 0 0 0 0 0 127 0"/><feOffset dy="1"/><feGaussianBlur stdDeviation="1"/><feColorMatrix type="matrix" values="0 0 0 0 0 0 0 0 0 0 0 0 0 0 0 0 0 0 0.3 0"/><feBlend in2="effect1_dropShadow_4690_314721" mode="normal" result="effect2_dropShadow_4690_314721"/><feBlend in="SourceGraphic" in2="effect2_dropShadow_4690_314721" mode="normal" result="shape"/></filter></defs></svg>